# xmcd
#
# Track frame offsets: 
#        170
#        28370
#        62660
#        95637
#        124515
#        163610
#
# Disc length: 2512 seconds
#
# Revision: 1
# Processed by: cddbd v1.5.2PL0 Copyright (c) Steve Scherf et al.
# Submitted via: ExactAudioCopy v0.99pb3
#
DISCID=4c09ce06
DTITLE=Miles Davis - Down
DYEAR=1951
DGENRE=Jazz+Funk
TTITLE0=Move [510603 Birdland]
TTITLE1=Half Nelson [510603 Birdland]
TTITLE2=Down [510603 Birdland]
TTITLE3=Move [510929 Birdland]
TTITLE4=The Squirrel [510929 Birdland]
TTITLE5=Lazy Bird [510929 Birdland]
EXTD=YEAR: 1951
EXTT0=
EXTT1=
EXTT2=
EXTT3=
EXTT4=
EXTT5=
PLAYORDER=
